<?xml version="1.0" standalone="no"?>
<!DOCTYPE svg PUBLIC "-//W3C//DTD SVG 1.1//EN" "http://www.w3.org/Graphics/SVG/1.1/DTD/svg11.dtd" >
<svg xmlns="http://www.w3.org/2000/svg" xmlns:xlink="http://www.w3.org/1999/xlink" version="1.1">
<metadata></metadata>
<defs>
<font id="partnerregular" horiz-adv-x="1138" >
<font-face units-per-em="2048" ascent="1638" descent="-410" />
<missing-glyph horiz-adv-x="569" />
<glyph unicode="&#xd;" horiz-adv-x="681" />
<glyph unicode=" "  horiz-adv-x="569" />
<glyph unicode="&#x09;" horiz-adv-x="569" />
<glyph unicode="&#xa0;" horiz-adv-x="569" />
<glyph unicode="!" horiz-adv-x="796" d="M287 1479h227l-45 -1137h-145zM293 0v205h217v-205h-217z" />
<glyph unicode="&#x22;" horiz-adv-x="819" d="M150 946v504h194v-504h-194zM475 946v504h195v-504h-195z" />
<glyph unicode="#" d="M29 387v135h231l59 344h-215v135h240l78 429h168l-78 -429h244l75 429h162l-75 -429h192v-135h-219l-60 -344h211v-135h-239l-78 -428h-156l76 428h-242l-81 -428h-164l75 428h-204zM430 522h242l59 344h-242z" />
<glyph unicode="$" d="M57 389h215q2 -121 66.5 -181.5t173.5 -62.5v498q-211 70 -283 115q-145 96 -145 295q0 168 132 278.5t302 114.5v141h98v-139q188 -4 311.5 -92t137.5 -271h-215q-2 92 -68.5 137.5t-167.5 49.5v-445q102 -29 171 -55.5t146 -73.5t115.5 -119.5t38.5 -168.5 q0 -211 -133 -318.5t-342 -122.5v-180h-98v180q-66 0 -127 12.5t-122.5 43t-106.5 76.5t-73 121t-26 167zM299 1044q0 -31 16.5 -58.5t35 -44.5t56 -35.5t54 -26t55.5 -21.5v410q-100 -4 -158.5 -61.5t-58.5 -162.5zM614 145q115 4 185.5 65.5t70.5 180.5q0 162 -256 225 v-471z" />
<glyph unicode="%" horiz-adv-x="1820" d="M78 1081q0 166 81 266.5t253 100.5t252.5 -100.5t80.5 -266.5t-80.5 -266t-252.5 -100t-253 100t-81 266zM238 1081.5q0 -243.5 174 -243.5t174 243.5t-174 243.5t-174 -243.5zM350 -78l903 1575h136l-904 -1575h-135zM1032 336q0 166 81 266t253 100t253 -100t81 -266 t-81 -266.5t-253 -100.5t-253 100.5t-81 266.5zM1192 336q0 -244 174 -244t174 244t-174 244t-174 -244z" />
<glyph unicode="&#x26;" horiz-adv-x="1593" d="M113 385q0 156 78.5 262.5t232.5 214.5q-170 170 -170 332q0 158 113.5 236.5t279.5 78.5q168 0 284 -74.5t116 -240.5q0 -96 -83 -192.5t-204 -174.5l362 -358q115 205 99 489h215q-20 -414 -187 -616l350 -338l-4 -4h-292l-181 182q-123 -119 -248.5 -166t-302.5 -47 q-186 0 -322 116t-136 300zM328 393q0 -119 94 -183.5t223 -64.5q176 0 344 160l-434 428q-57 -43 -89 -70.5t-69 -69.5t-53 -91t-16 -109zM469 1180q0 -66 145 -207q11 -8 15 -12q203 139 202 229q0 70 -55 106.5t-129 36.5q-66 0 -122 -45t-56 -108z" />
<glyph unicode="'" horiz-adv-x="569" d="M188 946v504h195v-504h-195z" />
<glyph unicode="(" horiz-adv-x="681" d="M154 641q0 90 28.5 215t50 189.5t88 241t72.5 192.5h137q-182 -551 -182 -838t182 -838h-137q-6 16 -72.5 192.5t-88 241t-50 189.5t-28.5 215z" />
<glyph unicode=")" horiz-adv-x="681" d="M152 -197q182 551 182 838t-182 838h137q6 -16 72.5 -192.5t88 -241t50 -189.5t28.5 -215t-28.5 -215t-50 -189.5t-88 -241t-72.5 -192.5h-137z" />
<glyph unicode="*" d="M158 1012v149l346 -45l-209 289l135 74l137 -320l142 320l137 -76l-215 -287l350 39v-154l-352 39l209 -282l-133 -82l-138 323l-147 -319l-139 76l217 284z" />
<glyph unicode="+" horiz-adv-x="1196" d="M102 424v143h424v424h144v-424h424v-143h-424v-424h-144v424h-424z" />
<glyph unicode="," horiz-adv-x="569" d="M100 -256l131 502h238l-229 -502h-140z" />
<glyph unicode="-" horiz-adv-x="681" d="M84 475v143h514v-143h-514z" />
<glyph unicode="." horiz-adv-x="569" d="M166 0v246h237v-246h-237z" />
<glyph unicode="/" horiz-adv-x="569" d="M-49 -197l532 1676h135l-532 -1676h-135z" />
<glyph unicode="0" d="M94 708.5q0 133.5 18.5 248t65.5 233.5t146.5 188.5t245 69.5t244.5 -69.5t146.5 -188.5t65.5 -233.5t18 -248t-18 -248t-65.5 -233t-146.5 -188.5t-244.5 -70t-245 70t-146.5 188.5t-65.5 233t-18.5 248zM309 620q0 -30 5 -98.5t14.5 -109.5t28 -98.5t45 -89t69.5 -55.5 t98.5 -24t98.5 24t69.5 55.5t45 89t27.5 98.5t14 109.5t5 98v89.5v89.5t-5 98.5t-13 112t-27.5 97t-46 88t-69.5 54.5t-98.5 23.5t-98.5 -23.5t-69.5 -54.5t-46 -88t-28 -97t-13.5 -112t-5 -98.5v-89.5v-89z" />
<glyph unicode="1" d="M254 1202q45 23 167 98.5t173 116.5h205v-1417h-205v1202q-16 -12 -76.5 -54t-88.5 -59.5t-77 -46t-90 -47.5z" />
<glyph unicode="2" d="M109 0v186q23 23 143.5 139.5t165.5 163t129 136.5t145 168q98 127 99 260q0 219 -228 219q-104 0 -164.5 -69.5t-54.5 -172.5h-215q-2 188 121 303t311 115q203 0 324 -103.5t121 -275.5q0 -119 -33 -193.5t-117 -181.5q-84 -109 -233.5 -262t-260.5 -252v-4h648v-176 h-901z" />
<glyph unicode="3" d="M78 365h215q-2 -102 71.5 -161t186.5 -59q115 0 199 61.5t84 166.5q-1 293 -398 268v176q96 -6 175 9.5t140.5 75t61.5 159.5q0 211 -256 211q-98 0 -169 -59.5t-73 -155.5h-215q-2 178 130 284.5t313 106.5q205 0 345 -101.5t140 -297.5q0 -119 -85 -208t-204 -112v-4 q139 -12 224.5 -108.5t85.5 -235.5q0 -195 -148.5 -303.5t-380.5 -108.5q-190 0 -317 104.5t-125 291.5z" />
<glyph unicode="4" d="M139 297v176l508 944h209v-944h219v-176h-219v-297h-184v297h-533zM326 473h346v631h-13z" />
<glyph unicode="5" d="M115 336h215q2 -94 73.5 -142.5t176.5 -48.5q129 0 192.5 92.5t63.5 227.5q0 119 -59.5 205t-176.5 86t-182.5 -39t-98.5 -144h-186l37 844h797v-176h-621l-27 -436q76 72 141.5 99.5t166.5 27.5q195 0 309.5 -138.5t114.5 -336.5q0 -217 -144.5 -352.5t-363.5 -135.5 q-184 0 -302 93.5t-126 273.5z" />
<glyph unicode="6" d="M104 659.5q0 116.5 13.5 221t51.5 211t95.5 183.5t154.5 125t222 48q170 0 286.5 -100.5t116.5 -266.5h-215q2 94 -55 142.5t-156 48.5q-68 0 -118.5 -23.5t-82.5 -69.5t-52.5 -94.5t-29.5 -114t-12.5 -110.5t-3.5 -104l5 -4q96 178 313 178q199 0 316.5 -134t117.5 -335 q0 -211 -135 -351.5t-346 -140.5q-119 0 -208 39t-141.5 101.5t-84 155.5t-42 185.5t-10.5 209zM319 453q0 -129 71 -218.5t200 -89.5t197.5 82t68.5 213q0 141 -62.5 227.5t-197.5 86.5q-123 0 -200 -88t-77 -213z" />
<glyph unicode="7" d="M72 1241v176h936l-521 -1417h-198l456 1241h-673z" />
<glyph unicode="8" d="M80 373q0 147 83 240t230 132v5q-131 20 -207.5 111t-76.5 224q0 160 136 261.5t324 101.5q180 0 324.5 -93t144.5 -270q0 -131 -80.5 -225t-209.5 -110v2v-4q147 -31 229 -122t82 -239q0 -197 -142.5 -307.5t-347.5 -110.5q-199 0 -344 104.5t-145 299.5zM274 403 q0 -117 85 -204.5t210 -87.5q121 0 208 79.5t87 212.5q0 125 -85 193t-210 68q-119 0 -207 -75t-88 -186zM303 1073q0 -109 77 -171t189 -62q111 0 193 59.5t82 163.5q0 109 -79 176.5t-196 67.5q-98 0 -182 -66.5t-84 -167.5z" />
<glyph unicode="9" d="M76 967q-10 203 122 342t341 139q147 0 248.5 -56.5t151.5 -160t69.5 -215t19.5 -258.5q0 -117 -13.5 -221.5t-51 -211t-95 -183t-155 -125t-221.5 -48.5q-170 0 -287 100.5t-117 266.5h215q-2 -94 55.5 -142.5t155.5 -48.5q68 0 119 25t83 72t52 97t29.5 121.5t12.5 124 t3 126.5l-2 4q-76 -193 -315 -187q-184 6 -297 127t-123 312zM291 999q0 -137 60.5 -215.5t185.5 -78.5q127 0 201.5 81.5t74.5 212.5q0 119 -70.5 196t-199.5 77q-117 0 -184.5 -74t-67.5 -199z" />
<glyph unicode=":" horiz-adv-x="569" d="M166 0v246h237v-246h-237zM166 797v245h237v-245h-237z" />
<glyph unicode=";" horiz-adv-x="569" d="M100 -256l131 502h238l-229 -502h-140zM231 793v245h238v-245h-238z" />
<glyph unicode="&#x3c;" horiz-adv-x="1196" d="M92 424v143l1002 424v-164l-809 -331l809 -332v-164z" />
<glyph unicode="=" horiz-adv-x="1196" d="M102 250v143h992v-143h-992zM102 598v143h992v-143h-992z" />
<glyph unicode="&#x3e;" horiz-adv-x="1196" d="M102 0v164l801 332l-801 331v164l1002 -424v-143z" />
<glyph unicode="?" horiz-adv-x="1024" d="M129 1280v184q137 45 289 45q125 0 227.5 -32.5t176 -117.5t73.5 -212q0 -55 -15.5 -107.5t-50 -102.5t-60.5 -83t-76 -86t-68 -74q-16 -20 -34 -38.5t-24 -25.5t-12 -14.5t-8 -13.5t-3 -13t-4 -23.5t-8 -35.5v-194h-204v151v28v32t2 30.5t6 36t13 35t22 39.5 q20 25 79.5 82t105.5 104.5t85 117t39 134.5q0 109 -75 158t-189 49q-164 0 -287 -53zM322 0v205h217v-205h-217z" />
<glyph unicode="@" horiz-adv-x="2078" d="M66 582q8 193 127.5 401.5t279.5 325.5q129 94 301 151.5t318 48.5q176 -10 364.5 -84.5t306.5 -207.5q156 -174 176.5 -389.5t-90.5 -417.5q-82 -158 -239.5 -249t-319.5 -40q-59 18 -92 60t-39 83q-78 -78 -145.5 -114.5t-161.5 -30.5q-139 8 -226 109.5t-94 242.5 q-6 139 66 278.5t186 223.5q49 37 122 65.5t134 30.5q88 4 170 -49t103 -135h4l43 135h170l-199 -612q-20 -53 -1.5 -100.5t79.5 -53.5q78 0 164 57.5t127 130.5q109 188 82 349q-37 221 -206 366.5t-402 185.5q-334 57 -613 -169q-305 -252 -317 -603q-8 -313 217 -517 t547 -197q78 0 144.5 10t109.5 20.5t139 38.5l59 -137q-252 -94 -487 -88q-160 2 -301 49q-287 92 -453 313.5t-153 518.5zM721 498q-2 -94 59.5 -175t153.5 -75q96 6 173 103.5t109.5 215t24.5 205.5q-8 80 -73.5 118t-147.5 25q-131 -20 -213 -148t-86 -269z" />
<glyph unicode="A" horiz-adv-x="1478" d="M18 0l623 1479h219l598 -1479h-223l-160 385h-686l-160 -385h-211zM459 561h551l-269 715z" />
<glyph unicode="B" horiz-adv-x="1366" d="M195 0v1479h528q211 0 344 -92.5t133 -292.5q0 -115 -69.5 -202t-180.5 -118v-4q137 -20 216 -129t79 -254q0 -125 -73.5 -219t-194.5 -139q-76 -29 -254 -29h-528zM399 176h342q129 0 209 61.5t80 190.5t-80 190.5t-209 61.5h-342v-504zM399 856h254q166 0 249 44 t83 179t-83 179.5t-249 44.5h-254v-447z" />
<glyph unicode="C" horiz-adv-x="1366" d="M115 739q0 367 178 576q169 194 454 194h3q227 0 375.5 -108t164.5 -303h-215q-8 102 -101 168.5t-212 66.5q-104 0 -184 -38t-126 -95t-75 -140t-38 -159t-9 -162q0 -123 20.5 -223t65.5 -187t128 -135.5t199 -48.5q125 0 216.5 61.5t109.5 174.5h215 q-14 -182 -176 -297t-383 -115q-158 0 -278.5 61.5t-191.5 169t-105.5 244t-34.5 295.5z" />
<glyph unicode="D" horiz-adv-x="1478" d="M188 0v1479h492q260 0 401 -90q313 -201 314 -651q0 -447 -314 -648q-141 -90 -401 -90h-492zM393 176h299q260 0 375 168q113 162 113 395.5t-113 395.5q-115 168 -375 168h-299v-1127z" />
<glyph unicode="E" horiz-adv-x="1251" d="M154 0v1479h927v-176h-723v-461h689v-176h-689v-490h740v-176h-944z" />
<glyph unicode="F" d="M162 0v1479h876v-176h-671v-465h632v-176h-632v-662h-205z" />
<glyph unicode="G" horiz-adv-x="1593" d="M139 739q0 231 127 455q180 315 598 315q133 0 249 -38.5t200 -132t90 -228.5h-215q-47 223 -348 223q-131 0 -229.5 -53t-154 -141t-80.5 -189q-23 -88 -23 -182q0 -14 1 -29q6 -150 34 -253t90.5 -182t169 -118t261.5 -41h11q136 0 284 48v417h-336v176h541v-731 q-285 -86 -508 -86q-176 0 -302 35t-239 135q-115 100 -168 263t-53 337z" />
<glyph unicode="H" horiz-adv-x="1478" d="M184 0v1479h205v-635h703v635h204v-1479h-204v668h-703v-668h-205z" />
<glyph unicode="I" horiz-adv-x="569" d="M182 0v1479h205v-1479h-205z" />
<glyph unicode="J" d="M43 401h215q8 -127 71.5 -185t159.5 -58q98 0 165 59t67 184l2 1078h205v-1069q0 -201 -124 -314.5t-321 -113.5q-211 0 -327 108q-113 107 -113 304v7z" />
<glyph unicode="K" horiz-adv-x="1366" d="M188 0v1479h205v-641l617 641h280l-661 -662l735 -817h-289l-682 784v-784h-205z" />
<glyph unicode="L" d="M190 0v1479h205v-1303h688v-176h-893z" />
<glyph unicode="M" horiz-adv-x="1933" d="M188 0v1479h357l426 -1219h4l418 1219h352v-1479h-205v1331h-4l-473 -1331h-193l-473 1331h-4v-1331h-205z" />
<glyph unicode="N" horiz-adv-x="1593" d="M203 0v1479h280l721 -1223h4v1223h183v-1479h-254l-748 1255h-4v-1255h-182z" />
<glyph unicode="O" horiz-adv-x="1593" d="M121 739q0 342 172 556t503.5 214t504 -214t172.5 -556t-172.5 -556t-504 -214t-503.5 214t-172 556zM336 739q0 -594 460.5 -594t460.5 594q0 129 -20 228.5t-68.5 185.5t-142.5 133t-229 47t-229.5 -47t-142.5 -133t-68.5 -185.5t-20.5 -228.5z" />
<glyph unicode="P" horiz-adv-x="1251" d="M180 0v1479h496q512 0 512 -414q0 -147 -76 -243.5t-188.5 -133.5t-259.5 -37h-279v-651h-205zM385 827h322q242 0 264 199q2 18 2 39q0 68 -24.5 117t-55.5 71.5t-76 34.5t-64.5 13.5t-41.5 1.5h-4h-322v-476z" />
<glyph unicode="Q" horiz-adv-x="1593" d="M135 739q0 217 67.5 386t220 276.5t374 107.5t374 -107.5t220 -276.5t67.5 -386q0 -174 -65.5 -334.5t-204.5 -267.5l4 -4q139 31 231 31q91 0 136 -8v-156q-132 3 -264.5 3t-266.5 -3q-6 0 -49 -8t-66 -10q-78 -12 -116 -13q-221 0 -374 106.5t-220.5 276.5t-67.5 387z M350 739.5q0 -114.5 21.5 -214t69.5 -188.5t139.5 -140.5t216.5 -51.5t216 52.5t139 141.5t69.5 187.5t21.5 213t-21.5 214t-69.5 188.5t-139 140t-216 51t-216.5 -52t-139.5 -141t-69.5 -187.5t-21.5 -213z" />
<glyph unicode="R" horiz-adv-x="1366" d="M176 0v1479h529q100 0 184 -17.5t158.5 -57.5t117.5 -116t43 -180q0 -133 -74.5 -229.5t-203.5 -126.5v-4q123 -29 164 -94.5t61 -209.5q45 -319 92 -444h-219q-47 223 -51 272q-2 16 -8 75t-10.5 80.5t-12.5 61t-22.5 65.5t-32.5 46q-29 31 -70 47.5t-69.5 18.5t-83.5 2 h-287v-668h-205zM377 844h338q279 0 279 229q0 230 -279 230h-338v-459z" />
<glyph unicode="S" horiz-adv-x="1366" d="M115 432h215q6 -287 323 -287q70 0 130.5 11.5t117.5 38t91 80t34 126.5q0 174 -242 228q-262 55 -348 86q-301 111 -301 354q0 115 49 203t133 138t181.5 74.5t206.5 24.5q209 0 354 -99t145 -300h-215q-6 117 -89 170t-206 53q-133 0 -238.5 -55t-105.5 -174 q0 -35 6 -62.5t21.5 -48t28 -34t41 -24.5t45 -17.5t53.5 -17.5t53 -15q51 -16 140 -39t148.5 -38t133.5 -47t117 -72t73.5 -107.5t30.5 -157.5q0 -121 -51 -212t-138 -142.5t-189.5 -76t-221.5 -24.5q-248 1 -390 113q-136 108 -136 331v19z" />
<glyph unicode="T" horiz-adv-x="1251" d="M29 1303v176h1196v-176h-496v-1303h-205v1303h-495z" />
<glyph unicode="U" horiz-adv-x="1593" d="M201 586v893h205v-942q0 -186 106 -289t284.5 -103t285 102.5t106.5 289.5v942h205v-893q0 -293 -150.5 -455t-445.5 -162t-445.5 162t-150.5 455z" />
<glyph unicode="V" horiz-adv-x="1366" d="M35 1479h205l440 -1264h4l442 1264h205l-545 -1479h-225z" />
<glyph unicode="W" horiz-adv-x="2048" d="M16 1479h205l332 -1217h4l350 1217h254l332 -1227h4l330 1227h205l-439 -1479h-227l-340 1264h-4l-365 -1264h-221z" />
<glyph unicode="X" horiz-adv-x="1478" d="M41 0l573 774l-512 705h263l399 -570l399 570h248l-526 -709l553 -770h-258l-441 635l-450 -635h-248z" />
<glyph unicode="Y" horiz-adv-x="1366" d="M4 1479h229l459 -725l443 725h229l-578 -955v-524h-204v524z" />
<glyph unicode="Z" horiz-adv-x="1251" d="M47 0v176l909 1127h-856v176h1106v-176l-913 -1127h897v-176h-1143z" />
<glyph unicode="[" horiz-adv-x="681" d="M164 -197v1676h354v-136h-178v-1404h178v-136h-354z" />
<glyph unicode="\" horiz-adv-x="569" d="M-14 1479h135l485 -1479h-135z" />
<glyph unicode="]" horiz-adv-x="681" d="M164 -61h178v1404h-178v136h354v-1676h-354v136z" />
<glyph unicode="^" horiz-adv-x="1196" d="M209 670l315 778h150l315 -778h-143l-248 606l-248 -606h-141z" />
<glyph unicode="_" horiz-adv-x="1024" d="M0 -139h1024v-115h-1024v115z" />
<glyph unicode="`" horiz-adv-x="569" d="M-16 1479h213l168 -295h-134z" />
<glyph unicode="a" d="M109 262q0 137 76.5 224t183 118t239.5 31h176q0 80 -5 122t-25.5 84t-65.5 59.5t-121 17.5q-78 0 -134 -44.5t-58 -119.5h-205q8 158 115.5 231.5t273.5 73.5q420 0 420 -350v-492q0 -102 8 -217h-131q-4 0 -12 -1t-14.5 -1t-13.5 1t-11 5t-4 10q-8 96 -10 140h-5 q-90 -184 -319 -185q-147 0 -252.5 76t-105.5 217zM313 301q0 -92 56.5 -141t146.5 -49q268 0 268 367v22h-194q-106 0 -191.5 -48.5t-85.5 -150.5z" />
<glyph unicode="b" horiz-adv-x="1251" d="M166 0q10 154 10 164v1315h195v-590h4q82 170 319 170q225 0 344 -159t119 -386q0 -102 -24.5 -196.5t-73.5 -174.5t-134 -127t-196 -47q-260 0 -354 195h-4l4 -10l-8 -154h-201zM371 514q0 -403 291 -403q152 0 221 118.5t69 284.5q0 109 -22.5 193t-90 147.5 t-177.5 63.5q-152 0 -221.5 -120t-69.5 -284z" />
<glyph unicode="c" horiz-adv-x="1024" d="M80 506q0 240 122 396.5t355 156.5q166 0 274.5 -97.5t116.5 -263.5h-194q-16 219 -211 220q-258 0 -258 -403.5t258 -403.5q96 0 153.5 60t65.5 171h194q-12 -172 -126.5 -272.5t-288.5 -100.5q-236 0 -348.5 146.5t-112.5 390.5z" />
<glyph unicode="d" horiz-adv-x="1251" d="M111 514q0 227 117.5 386t342.5 159q238 0 320 -170h4v590h195v-1297q0 -35 10 -182h-199l-6 154v10h-4q-94 -195 -354 -195q-145 0 -244.5 83t-140.5 202t-41 260zM315 516q0 -78 15.5 -146.5t47.5 -130t91 -98.5t137 -37q111 0 179.5 66t90 152t21.5 194 q0 164 -69.5 286t-221.5 122q-111 0 -178.5 -64.5t-90 -149.5t-22.5 -194z" />
<glyph unicode="e" d="M104 506q0 242 122 398q120 155 350 155h6q223 -2 337.5 -133t114.5 -353v-96h-725q-2 -23 -2 -45q-1 -121 55 -213q66 -108 205 -108q115 0 174.5 49t75.5 159h205q-23 -170 -144.5 -260t-312.5 -90q-236 0 -348.5 146.5t-112.5 390.5zM309 612h520v16q1 126 -61 206 q-66 84 -201 84q-119 0 -188.5 -87.5t-69.5 -218.5z" />
<glyph unicode="f" horiz-adv-x="681" d="M33 893v135h200v197q0 154 95.5 219t226.5 65q23 0 139 -20v-162l-98 6q-88 0 -128 -30.5t-40 -110.5v-164h238v-135h-238v-893h-195v893h-200z" />
<glyph unicode="g" horiz-adv-x="1251" d="M104 528.5q0 231.5 126 381t352 149.5q80 0 154.5 -34t119.5 -101q2 -2 10 -19q19 -33 21 -31l6 154h201q-12 -123 -13 -184v-723q0 -281 -128 -406t-412 -125q-176 0 -277.5 81t-103.5 251h205q12 -190 239 -190q41 0 75 5t60.5 21.5t47 28.5t35 42t25.5 45t17 57 t10.5 58.5t7.5 66.5t3 65.5t2 71.5h-6q-43 -86 -138.5 -130.5t-199.5 -44.5q-223 0 -331 139.5t-108 371zM309 538.5q0 -92.5 22.5 -172t91.5 -143t175 -63.5q147 0 218 107.5t71 271t-71 271.5t-218 108q-106 0 -175 -63.5t-91.5 -143.5t-22.5 -172.5z" />
<glyph unicode="h" horiz-adv-x="1251" d="M184 0v1479h195v-588h4q109 168 334 168q186 0 269 -102.5t83 -260.5v-696h-195v608q0 147 -50 223t-179 78h-6q-59 0 -128 -40q-73 -42 -99 -103q-16 -37 -24.5 -77t-9.5 -57.5t0 -59.5t1 -44v-528h-195z" />
<glyph unicode="i" horiz-adv-x="569" d="M170 1268v211h231v-211h-231zM188 0v1028h195v-1028h-195z" />
<glyph unicode="j" horiz-adv-x="569" d="M12 -252q26 -2 49 -2q33 0 58 5q41 9 56 35t18.5 42t3.5 47v10v1143h194v-1091q0 -154 -53 -242t-201 -88q-84 0 -125 6v135zM178 1268v211h232v-211h-232z" />
<glyph unicode="k" horiz-adv-x="1024" d="M162 0v1479h194v-871l385 420h252l-434 -436l461 -592h-252l-408 555h-4v-555h-194z" />
<glyph unicode="l" horiz-adv-x="569" d="M188 0v1479h195v-1479h-195z" />
<glyph unicode="m" horiz-adv-x="1933" d="M180 0v1028h191v-147h4q43 90 124 134t169 44q283 0 362 -193q113 193 342 193q174 0 278.5 -95.5t104.5 -238.5v-725h-194v608q0 63 -7.5 108.5t-31 93.5t-75.5 73.5t-134 25.5q-61 0 -132 -37.5t-96 -121.5q-20 -72 -20 -222v-528h-195v608q0 147 -48 224t-179 77 q-182 0 -254 -168q-14 -35 -14 -213v-528h-195z" />
<glyph unicode="n" horiz-adv-x="1251" d="M184 0v1028h191v-151h4q45 90 135 136t176 46q33 0 69 -4t97.5 -24.5t107.5 -54.5t80.5 -103.5t34.5 -161.5v-711h-194v647q0 262 -236 262h-15q-97 0 -173 -75q-25 -25 -37 -41.5t-28.5 -79t-16.5 -154.5v-559h-195z" />
<glyph unicode="o" horiz-adv-x="1251" d="M115 514q0 248 133 396.5t378.5 148.5t379 -148.5t133.5 -396.5t-133.5 -396.5t-379 -148.5t-378.5 148.5t-133 396.5zM319 514q0 -182 73 -292.5t234.5 -110.5t234.5 110.5t73 292.5t-73 293t-234.5 111t-234.5 -111t-73 -293z" />
<glyph unicode="p" horiz-adv-x="1251" d="M166 1028h199l6 -164h4q78 195 350 195q205 0 318.5 -160t113.5 -385q0 -104 -25.5 -197.5t-81 -173.5t-154.5 -127t-232 -47q-74 0 -157 37t-130 111h-6v-510h-195v1237q0 31 -10 184zM371 514q0 -109 21.5 -192.5t85 -147t165.5 -63.5q86 0 148.5 34.5t96.5 95t49 128 t15 145.5q0 109 -22.5 193t-90 147.5t-177.5 63.5q-152 0 -221.5 -120t-69.5 -284z" />
<glyph unicode="q" horiz-adv-x="1251" d="M96 524q0 217 110.5 376t317.5 159q244 0 353 -187h4l10 156h199q-10 -154 -11 -184v-1237h-194v508h-4q-123 -145 -357 -146q-139 0 -240.5 89t-144.5 211t-43 255zM301 522q0 -76 12.5 -140.5t42 -130t92 -103t150.5 -37.5q287 0 287 411q0 104 -27 189.5t-96.5 146 t-175.5 60.5q-152 0 -218.5 -114t-66.5 -282z" />
<glyph unicode="r" horiz-adv-x="796" d="M190 0v1028h195v-199h4q20 102 105.5 157.5t195.5 55.5q12 0 35 -1t33 -1v-184q-27 10 -84 10q-172 -6 -230.5 -91t-58.5 -265v-510h-195z" />
<glyph unicode="s" horiz-adv-x="1024" d="M88 305h205q2 -92 59.5 -143t149.5 -51q98 0 164.5 43t66.5 135q0 53 -46 86t-115.5 45t-150.5 33.5t-150.5 47t-115.5 89.5t-46 158q0 150 122.5 230.5t280.5 80.5q106 0 194 -29q88 -28 150 -102q55 -66 56 -163q0 -11 -1 -22h-204q1 9 1 17q0 78 -54 116 q-58 42 -152 42q-84 0 -136.5 -41t-52.5 -123q0 -39 31 -68t64.5 -39t87 -22.5t67.5 -16.5q23 -6 75 -21.5t77.5 -24.5t67.5 -25.5t63.5 -36t46.5 -48t35 -67.5t10 -86q0 -119 -72.5 -196.5t-170 -105.5t-214.5 -28q-175 0 -285 84q-109 83 -108 246v6z" />
<glyph unicode="t" horiz-adv-x="681" d="M18 889v145l177 -6v219l194 62v-281l238 6v-145l-238 2v-664q0 -53 36 -80.5t91 -27.5q57 0 102 12v-149q-18 0 -63 -6.5t-70 -6.5q-72 0 -131 11q-76 14 -114 67q-35 49 -41 82q-4 33 -4 109v653z" />
<glyph unicode="u" horiz-adv-x="1251" d="M184 340v688h195v-608q0 -150 48 -229.5t179 -79.5q70 0 135.5 36.5t94.5 110.5q38 103 38 242v528h195v-1028h-190v152h-5q-111 -182 -352 -183q-158 0 -248 105.5t-90 265.5z" />
<glyph unicode="v" d="M33 1028h215l327 -815l320 815h213l-451 -1028h-194z" />
<glyph unicode="w" horiz-adv-x="1705" d="M23 1028h210l248 -827h4l256 827h252l232 -811h4l256 811h198l-362 -1028h-221l-240 846h-4l-266 -846h-228z" />
<glyph unicode="x" d="M39 0l407 539l-385 489h252l275 -387l286 387h228l-404 -502l404 -526h-254l-293 412l-291 -412h-225z" />
<glyph unicode="y" d="M33 1028h217l321 -811l328 811h209l-604 -1421h-199l156 397z" />
<glyph unicode="z" horiz-adv-x="909" d="M82 0v135l518 758h-510v135h719v-135l-516 -758h536v-135h-747z" />
<glyph unicode="{" horiz-adv-x="684" d="M96 567v146q109 10 144.5 68.5t35.5 179.5l-2 294q0 96 72 160t154 64h125v-136h-82q-102 -18 -103 -131v-282q0 -182 -159 -287q-2 -4 -5 -4q164 -98 164 -289v-280q0 -113 103 -131h82v-136h-125q-82 0 -154 63.5t-72 160.5l2 292q0 121 -35.5 179.5t-144.5 68.5z" />
<glyph unicode="|" horiz-adv-x="532" d="M195 0v1479h143v-1479h-143z" />
<glyph unicode="}" horiz-adv-x="684" d="M59 -61h82q102 18 103 131v282q0 182 159 287q2 4 5 4q-164 98 -164 289v280q0 113 -103 131h-82v136h125q82 0 154 -63.5t72 -160.5l-2 -292q0 -121 35.5 -179.5t144.5 -68.5v-146q-109 -10 -144.5 -68.5t-35.5 -178.5l2 -295q0 -96 -72 -160t-154 -64h-125v136z" />
<glyph unicode="~" horiz-adv-x="1196" d="M156 371q6 123 57 212t162 89q63 0 106 -27l269 -162q41 -25 80.5 -23.5t66.5 21.5q49 37 37 135h106q8 -100 -45 -191t-147 -103q-86 -10 -182 51l-220 139q-76 55 -133 3t-47 -144h-110z" />
<glyph unicode="&#xa3;" d="M66 717v135h151v180q0 111 40 194t106.5 130t142.5 69.5t160 22.5q188 0 310 -78t132 -254h-215q-6 90 -63.5 140.5t-153.5 50.5q-41 0 -75 -9.5t-59.5 -21.5t-45 -37t-31.5 -43t-21.5 -54t-13.5 -56.5t-6 -62.5t-2 -58.5v-59.5v-53h285v-135h-285v-541h649v-176h-991 v178h137v539h-151z" />
<glyph unicode="&#xa4;" d="M137 1018l111 117l119 -121q117 57 206 57q84 -2 193 -57l115 110l120 -125l-118 -112q45 -72 59 -174q4 -96 -68 -217l117 -117l-119 -113l-108 113q-102 -66 -191 -68q-84 -2 -204 51l-111 -104l-113 121l101 104q-70 88 -66 217q0 131 76 195zM352 690 q0 -100 63.5 -153.5t141.5 -53.5q80 0 146.5 54.5t66.5 158.5q0 96 -67.5 149.5t-145.5 53.5t-141.5 -53t-63.5 -156z" />
<glyph unicode="&#xa7;" d="M209 702q0 195 229 271v4q-199 61 -198 237q0 102 61 171t145 96.5t183 27.5q115 0 229 -34v-160q-135 53 -233 53q-78 0 -129.5 -38t-51.5 -113q0 -55 49.5 -88t120 -52.5t140 -44t119 -82t49.5 -147.5q0 -92 -63.5 -162t-158.5 -98v-4q229 -61 230 -271 q0 -98 -66.5 -168.5t-157 -100.5t-186.5 -30q-125 0 -272 41v176q147 -76 260 -75q80 0 148.5 42t68.5 119q0 63 -53.5 102.5t-129 60t-151.5 45t-129 79.5t-53 143zM403 737q0 -57 57.5 -103t114.5 -46q8 0 43 19.5t72 63.5t37 95q0 78 -66.5 120t-111.5 42 q-12 0 -45 -18.5t-67 -65.5t-34 -107z" />
<glyph unicode="&#xa9;" horiz-adv-x="1638" d="M49 741q0 317 225.5 542.5t546.5 225.5q319 0 543.5 -225t224.5 -543q0 -322 -224.5 -547t-543.5 -225q-322 0 -547 225.5t-225 546.5zM184 741q0 -264 186.5 -450.5t450.5 -186.5q262 0 447.5 186.5t185.5 450.5q0 262 -185.5 447.5t-447.5 185.5q-264 0 -450.5 -185 t-186.5 -448zM426 727q0 217 110.5 357.5t319.5 140.5q150 0 247 -87t105 -237h-176q-14 197 -188 197q-121 0 -181.5 -96.5t-60.5 -266.5t60.5 -266t181.5 -96q88 0 138 54t50 153h176q-6 -154 -108.5 -244t-257.5 -90q-213 0 -314.5 131t-101.5 350z" />
<glyph unicode="&#xab;" d="M176 547l230 399h161l-196 -399l192 -400h-157zM582 547l229 399h162l-197 -399l193 -400h-158z" />
<glyph unicode="&#xac;" horiz-adv-x="1196" d="M102 578v143h992v-553h-144v410h-848z" />
<glyph unicode="&#xad;" horiz-adv-x="681" d="M84 475v143h514v-143h-514z" />
<glyph unicode="&#xae;" horiz-adv-x="1638" d="M49 741q0 317 225.5 542.5t546.5 225.5q319 0 543.5 -225t224.5 -543q0 -322 -224.5 -547t-543.5 -225q-322 0 -547 225.5t-225 546.5zM184 741q0 -264 186.5 -450.5t450.5 -186.5q262 0 447.5 186.5t185.5 450.5q0 262 -185.5 447.5t-447.5 185.5q-264 0 -450.5 -185 t-186.5 -448zM516 299v905h293q338 0 338 -250q0 -80 -48 -136t-136 -75v-4q86 -16 113.5 -55t39.5 -123q29 -195 53 -262h-180q-29 143 -31 162q-2 14 -5 45t-5 45t-7 36.5t-13 38t-21 27.5q-35 37 -131 37h-119v-391h-141zM657 831h150q164 0 164 130q0 53 -31 77.5 t-113 24.5h-170v-232z" />
<glyph unicode="&#xb0;" horiz-adv-x="819" d="M102 1141q0 127 90.5 217t217.5 90t217 -91t90 -216q0 -127 -90 -217t-217 -90t-216.5 90t-91.5 217zM217 1141q0 -80 57.5 -136.5t135 -56.5t135 56.5t57.5 136.5q0 78 -57.5 135t-135 57t-135 -57t-57.5 -135z" />
<glyph unicode="&#xb1;" horiz-adv-x="1196" d="M102 0v143h992v-143h-992zM123 561v144h403v286h144v-286h403v-144h-403v-287h-144v287h-403z" />
<glyph unicode="&#xb5;" horiz-adv-x="1251" d="M170 -393v1421h195v-608q0 -150 48 -229.5t179 -79.5q70 0 135.5 36.5t93.5 110.5q39 102 39 242v528h195v-1028h-191v152h-4q-111 -182 -352 -183q-80 0 -143 29v-391h-195z" />
<glyph unicode="&#xb6;" horiz-adv-x="1099" d="M96 952q-10 197 117 362t322 165h532v-136h-117v-1722h-135v1722h-164v-1722h-135v893q-401 66 -420 438zM516 -379h135h-135z" />
<glyph unicode="&#xbb;" d="M166 147l196 400l-192 399h158l229 -399l-229 -400h-162zM571 147l197 400l-193 399h158l230 -399l-230 -400h-162z" />
<glyph unicode="&#xf7;" horiz-adv-x="1196" d="M102 424v143h992v-143h-992zM492 0v213h213v-213h-213zM492 778v213h213v-213h-213z" />
<glyph unicode="&#x192;" d="M70 -393l24 141q113 -4 146.5 53.5t76.5 286.5q2 14 5 21l118 618h-184l25 135h186q6 33 17.5 96.5t18.5 102.5t22.5 96t31.5 93t45 77t63.5 64.5t84 40t110.5 16.5q54 0 105 -12l-25 -136q-2 0 -29.5 3.5t-42.5 3.5q-55 -10 -93 -42t-59.5 -85.5t-31.5 -95.5 t-21.5 -115.5t-17.5 -106.5h215l-29 -135h-210l-125 -670q-2 -10 -11.5 -65t-14.5 -74.5t-18.5 -68t-27.5 -72t-36.5 -58t-53.5 -56t-70 -36.5q-51 -20 -194 -20z" />
<glyph unicode="&#x401;" horiz-adv-x="1251" d="M154 0v1479h927v-176h-723v-461h689v-176h-689v-490h740v-176h-944zM338 1720v209h186v-209h-186zM723 1720v209h186v-209h-186z" />
<glyph unicode="&#x402;" horiz-adv-x="1628" d="M29 1303v176h1196v-176h-496v-383q129 41 260 41q266 0 412.5 -127.5t146.5 -391.5h-2q0 -256 -174 -404.5t-424 -148.5v187q166 0 275.5 112.5t109.5 270.5q0 326 -344 325q-66 0 -131 -10t-96 -20l-33 -11v-743h-205v1303h-495z" />
<glyph unicode="&#x403;" horiz-adv-x="1105" d="M162 0v1479h876v-176h-671v-1303h-205zM537 1634l168 295h213l-248 -295h-133z" />
<glyph unicode="&#x404;" horiz-adv-x="1366" d="M106 739q0 115 18.5 220.5t66 208t118 176t184 119.5t257.5 46q221 0 368.5 -108t163.5 -303h-215q-8 102 -101.5 168.5t-211.5 66.5q-389 0 -428 -491h618v-176h-620q12 -231 109 -376t302 -145q125 0 216 61.5t110 174.5h215q-14 -182 -176 -297t-383 -115 q-158 0 -279 61.5t-191.5 169t-105.5 244t-35 295.5z" />
<glyph unicode="&#x405;" horiz-adv-x="1366" d="M115 432h215q6 -287 323 -287q70 0 130.5 11.5t117.5 38t91 80t34 126.5q0 174 -242 228q-262 55 -348 86q-301 111 -301 354q0 115 49 203t133 138t181.5 74.5t206.5 24.5q209 0 354 -99t145 -300h-215q-6 117 -89 170t-206 53q-133 0 -238.5 -55t-105.5 -174 q0 -35 6 -62.5t21.5 -48t28 -34t41 -24.5t45 -17.5t53.5 -17.5t53 -15q51 -16 140 -39t148.5 -38t133.5 -47t117 -72t73.5 -107.5t30.5 -157.5q0 -121 -51 -212t-138 -142.5t-189.5 -76t-221.5 -24.5q-248 0 -390 112.5t-136 350.5z" />
<glyph unicode="&#x406;" horiz-adv-x="569" d="M182 0v1479h205v-1479h-205zM188 1720v209h187v-209h-187z" />
<glyph unicode="&#x407;" horiz-adv-x="569" d="M-4 1720v209h186v-209h-186zM182 0v1479h205v-1479h-205zM381 1720v209h186v-209h-186z" />
<glyph unicode="&#x408;" d="M43 401h215q8 -127 71.5 -185t159.5 -58q98 0 165 59t67 184l2 1078h205v-1069q0 -201 -124 -314.5t-321 -113.5q-211 0 -326.5 108.5t-113.5 310.5z" />
<glyph unicode="&#x409;" horiz-adv-x="2197" d="M31 16v199q47 -31 75 -31q41 0 81 36t65 81q59 106 72.5 247.5t13.5 520.5v410h958v-623h336q238 0 374 -103.5t136 -324.5q0 -301 -268 -399q-33 -12 -96.5 -19.5t-110.5 -9.5h-47h-528v1303h-549v-383q0 -344 -37 -522.5t-139 -297.5q-102 -121 -230 -120 q-29 0 -55.5 9t-38.5 19zM1296 176h342q129 0 209 61.5t80 190.5t-80 190.5t-209 61.5h-342v-504z" />
<glyph unicode="&#x40a;" horiz-adv-x="2197" d="M184 0v1479h205v-635h703v635h204v-623h336q238 0 374 -103.5t136 -324.5q0 -301 -268 -399q-33 -12 -96.5 -19.5t-110.5 -9.5h-47h-528v668h-703v-668h-205zM1296 176h342q129 0 209 61.5t80 190.5t-80 190.5t-209 61.5h-342v-504z" />
<glyph unicode="&#x40b;" horiz-adv-x="1636" d="M29 1303v176h1196v-176h-496v-342h223q305 0 450.5 -145.5t145.5 -471.5v-344h-205v393q0 213 -101 302t-290 89h-223v-784h-205v1303h-495z" />
<glyph unicode="&#x40c;" horiz-adv-x="1366" d="M188 0v1479h205v-641l617 641h280l-661 -662l735 -817h-289l-682 784v-784h-205zM659 1634l168 295h213l-247 -295h-134z" />
<glyph unicode="&#x40e;" horiz-adv-x="1366" d="M57 1479h228l399 -877h4l404 877h231l-733 -1479h-225l217 385zM416 1858h98q10 -66 61.5 -106t122.5 -40q76 0 128.5 39t66.5 107h100q0 -123 -81 -203t-216 -80q-131 0 -205.5 81t-74.5 202z" />
<glyph unicode="&#x40f;" horiz-adv-x="1478" d="M184 0v1479h205v-1303h703v1303h204v-1479h-442v-330h-205v330h-465z" />
<glyph unicode="&#x410;" horiz-adv-x="1478" d="M18 0l623 1479h219l598 -1479h-223l-160 385h-686l-160 -385h-211zM459 561h551l-269 715z" />
<glyph unicode="&#x411;" horiz-adv-x="1366" d="M195 0v1479h897v-176h-693v-447h336q238 0 374 -103.5t136 -324.5q0 -301 -268 -399q-76 -29 -254 -29h-528zM399 176h342q129 0 209 61.5t80 190.5t-80 190.5t-209 61.5h-342v-504z" />
<glyph unicode="&#x412;" horiz-adv-x="1366" d="M195 0v1479h528q211 0 344 -92.5t133 -292.5q0 -115 -69.5 -202t-180.5 -118v-4q137 -20 216 -129t79 -254q0 -125 -73.5 -219t-194.5 -139q-76 -29 -254 -29h-528zM399 176h342q129 0 209 61.5t80 190.5t-80 190.5t-209 61.5h-342v-504zM399 856h254q166 0 249 44 t83 179t-83 179.5t-249 44.5h-254v-447z" />
<glyph unicode="&#x413;" horiz-adv-x="1105" d="M162 0v1479h876v-176h-671v-1303h-205z" />
<glyph unicode="&#x414;" horiz-adv-x="1478" d="M23 176h129q123 158 184 354q59 195 89 407t30 542h841v-1303h148v-506h-205v330h-1012v-330h-204v506zM399 176h693v1127h-433q0 -207 -31.5 -430.5t-78.5 -370.5q-57 -184 -150 -326z" />
<glyph unicode="&#x415;" horiz-adv-x="1251" d="M154 0v1479h927v-176h-723v-461h689v-176h-689v-490h740v-176h-944z" />
<glyph unicode="&#x416;" horiz-adv-x="2150" d="M2 0l735 817l-661 662h280l617 -641v641h205v-641l616 641h281l-662 -662l735 -817h-288l-682 784v-784h-205v784l-682 -784h-289z" />
<glyph unicode="&#x417;" horiz-adv-x="1366" d="M129 420h215q2 -131 98.5 -203t245.5 -72q137 0 235.5 66.5t98.5 177.5q0 285 -358 285q-49 0 -74 -2v182q74 -4 141.5 4t131 35t101 82t37.5 133q0 115 -87 170t-218 55q-133 0 -224 -54t-97 -169h-215q0 201 149.5 300t370.5 99q242 0 393.5 -104.5t151.5 -310.5 q0 -123 -88 -215.5t-213 -116.5v-4q143 -12 232 -113.5t89 -247.5q0 -203 -156.5 -315.5t-412.5 -112.5q-250 0 -401.5 114t-145.5 337z" />
<glyph unicode="&#x418;" horiz-adv-x="1478" d="M184 0v1479h205v-1127h4l686 1127h217v-1479h-204v1128h-5l-686 -1128h-217z" />
<glyph unicode="&#x419;" horiz-adv-x="1478" d="M184 0v1479h205v-1127h4l686 1127h217v-1479h-204v1128h-5l-686 -1128h-217zM479 1858h99q10 -66 61 -106t123 -40q76 0 128 39t66 107h101q0 -123 -81 -203t-216 -80q-131 0 -206 81t-75 202z" />
<glyph unicode="&#x41a;" horiz-adv-x="1366" d="M188 0v1479h205v-641l617 641h280l-661 -662l735 -817h-289l-682 784v-784h-205z" />
<glyph unicode="&#x41b;" horiz-adv-x="1478" d="M31 16v199q47 -31 75 -31q41 0 81 36t65 81q59 106 72.5 247.5t13.5 520.5v410h958v-1479h-204v1303h-549v-383q0 -344 -37 -522.5t-139 -297.5q-102 -121 -230 -120q-29 0 -55.5 9t-38.5 19z" />
<glyph unicode="&#x41c;" horiz-adv-x="1933" d="M188 0v1479h357l426 -1219h4l418 1219h352v-1479h-205v1331h-4l-473 -1331h-193l-473 1331h-4v-1331h-205z" />
<glyph unicode="&#x41d;" horiz-adv-x="1478" d="M184 0v1479h205v-635h703v635h204v-1479h-204v668h-703v-668h-205z" />
<glyph unicode="&#x41e;" horiz-adv-x="1593" d="M121 739q0 342 172 556t503.5 214t504 -214t172.5 -556t-172.5 -556t-504 -214t-503.5 214t-172 556zM336 739q0 -594 460.5 -594t460.5 594q0 129 -20 228.5t-68.5 185.5t-142.5 133t-229 47t-229.5 -47t-142.5 -133t-68.5 -185.5t-20.5 -228.5z" />
<glyph unicode="&#x41f;" horiz-adv-x="1478" d="M184 0v1479h1112v-1479h-204v1303h-703v-1303h-205z" />
<glyph unicode="&#x420;" horiz-adv-x="1251" d="M180 0v1479h496q512 0 512 -414q0 -147 -76 -243.5t-188.5 -133.5t-259.5 -37h-279v-651h-205zM385 827h322q242 0 264 199q2 18 2 39q0 68 -24.5 117t-55.5 71.5t-76 34.5t-64.5 13.5t-41.5 1.5h-4h-322v-476z" />
<glyph unicode="&#x421;" horiz-adv-x="1366" d="M115 739q0 367 178 576q170 195 457 194q227 0 375.5 -108t164.5 -303h-215q-8 102 -101 168.5t-212 66.5q-104 0 -184 -38t-126 -95t-75 -140t-38 -159t-9 -162q0 -123 20.5 -223t65.5 -187t128 -135.5t199 -48.5q125 0 216.5 61.5t109.5 174.5h215q-14 -182 -176 -297 t-383 -115q-158 0 -278.5 61.5t-191.5 169t-105.5 244t-34.5 295.5z" />
<glyph unicode="&#x422;" horiz-adv-x="1251" d="M29 1303v176h1196v-176h-496v-1303h-205v1303h-495z" />
<glyph unicode="&#x423;" horiz-adv-x="1366" d="M57 1479h228l399 -877h4l404 877h231l-733 -1479h-225l217 385z" />
<glyph unicode="&#x424;" horiz-adv-x="1705" d="M117 755.5q0 272.5 139 436.5t397 164q47 0 99 -10v133h204v-133q51 10 99 10q258 0 397 -164t139 -436.5t-139 -436t-397 -163.5q-53 0 -99 12v-168h-204v168q-45 -12 -99 -12q-258 0 -397 163.5t-139 436zM332 755.5q0 -190.5 75.5 -307t245.5 -116.5q56 0 99 12v823 q-43 12 -99 13q-170 0 -245.5 -117t-75.5 -307.5zM956 344q43 -12 99 -12q170 0 245.5 116.5t75.5 307t-75.5 307.5t-245.5 117q-55 0 -99 -13v-823z" />
<glyph unicode="&#x425;" horiz-adv-x="1478" d="M41 0l573 774l-512 705h263l399 -570l399 570h248l-526 -709l553 -770h-258l-441 635l-450 -635h-248z" />
<glyph unicode="&#x426;" horiz-adv-x="1478" d="M184 0v1479h205v-1303h703v1303h204v-1303h148v-506h-205v330h-1055z" />
<glyph unicode="&#x427;" horiz-adv-x="1366" d="M174 1194v285h205v-275q0 -227 65.5 -316t231.5 -89h303v680h205v-1479h-205v623h-361q-221 0 -332.5 137t-111.5 434z" />
<glyph unicode="&#x428;" horiz-adv-x="2201" d="M184 0v1479h205v-1303h610v1303h205v-1303h611v1303h204v-1479h-1835z" />
<glyph unicode="&#x429;" horiz-adv-x="2201" d="M184 0v1479h205v-1303h610v1303h205v-1303h611v1303h204v-1303h148v-506h-205v330h-1778z" />
<glyph unicode="&#x42a;" horiz-adv-x="1570" d="M29 1303v176h616v-623h336q238 0 374 -103.5t136 -324.5q0 -301 -268 -399q-76 -29 -254 -29h-529v1303h-411zM645 176h342q129 0 209 61.5t80 190.5t-80 190.5t-209 61.5h-342v-504z" />
<glyph unicode="&#x42b;" horiz-adv-x="1843" d="M195 0v1479h204v-623h336q238 0 374 -103.5t136 -324.5q0 -301 -268 -399q-76 -29 -254 -29h-528zM399 176h342q129 0 209 61.5t80 190.5t-80 190.5t-209 61.5h-342v-504zM1456 0v1479h205v-1479h-205z" />
<glyph unicode="&#x42c;" horiz-adv-x="1331" d="M195 0v1479h204v-623h336q238 0 374 -103.5t136 -324.5q0 -301 -268 -399q-76 -29 -254 -29h-528zM399 176h342q129 0 209 61.5t80 190.5t-80 190.5t-209 61.5h-342v-504z" />
<glyph unicode="&#x42d;" horiz-adv-x="1366" d="M82 1098q16 195 163.5 303t368.5 108q143 0 257 -46t184.5 -119.5t118 -176t65.5 -208t18 -220.5q0 -160 -34.5 -296t-105 -243.5t-191.5 -169t-279 -61.5q-221 0 -383 115t-176 297h215q18 -113 109.5 -174.5t216.5 -61.5q205 0 302 144.5t109 376.5h-620v176h618 q-39 492 -428 491q-119 0 -212 -66.5t-101 -168.5h-215z" />
<glyph unicode="&#x42e;" horiz-adv-x="2105" d="M184 0v1479h205v-635h248q27 301 198 483t474 182q332 0 504 -214t172 -556t-172.5 -556t-503.5 -214q-313 0 -484.5 192.5t-189.5 506.5h-246v-668h-205zM848 739q0 -594 460.5 -594t460.5 594q0 129 -20 228.5t-68.5 185.5t-142.5 133t-229 47t-229.5 -47t-142.5 -133 t-68.5 -185.5t-20.5 -228.5z" />
<glyph unicode="&#x42f;" horiz-adv-x="1366" d="M125 0q47 125 92 444q20 143 61 209t164 95v4q-129 31 -203.5 127t-74.5 229q0 104 43 180t117.5 116t158.5 57.5t185 17.5h528v-1479h-205v668h-286q-55 0 -84 -2t-70 -18.5t-68 -47.5q-18 -20 -32.5 -46t-22.5 -65.5t-12 -61t-10.5 -80t-8.5 -75.5q-4 -41 -53 -272 h-219zM378.5 1073.5q0.5 -229.5 278.5 -229.5h338v459h-338q-279 0 -278.5 -229.5z" />
<glyph unicode="&#x430;" d="M109 262q0 137 76.5 224t183 118t239.5 31h176q0 80 -5 122t-25.5 84t-65.5 59.5t-121 17.5q-78 0 -134 -44.5t-58 -119.5h-205q8 158 115.5 231.5t273.5 73.5q420 0 420 -350v-492q0 -102 8 -217h-131q-4 0 -12 -1t-14.5 -1t-13.5 1t-11 5t-4 10q-8 96 -10 140h-5 q-90 -184 -319 -185q-147 0 -252.5 76t-105.5 217zM313 301q0 -92 56.5 -141t146.5 -49q276 0 268 389h-194q-106 0 -191.5 -48.5t-85.5 -150.5z" />
<glyph unicode="&#x431;" horiz-adv-x="1251" d="M115 530q0 432 135 619q127 178 313 227q16 4 55 12.5t63 14.5t51.5 17.5t41.5 25.5t14 33h222q0 -55 -61.5 -118t-145.5 -79q-12 -2 -59.5 -10t-72 -13.5t-64.5 -17.5t-74.5 -29.5t-67.5 -40.5q-51 -39 -95 -110.5t-59 -132.5l4 -2q33 49 127.5 91t225.5 42 q68 0 149.5 -30t136.5 -71q184 -133 185 -444q0 -248 -133.5 -396.5t-378.5 -148.5q-229 0 -361 131q-151 151 -151 430zM319 514q0 -182 73 -292.5t234.5 -110.5t234.5 110.5t73 292.5t-73 293t-234.5 111t-234.5 -111t-73 -293z" />
<glyph unicode="&#x432;" d="M160 0v1028h473q150 0 249 -68.5t99 -195.5q0 -72 -40 -131.5t-91 -79.5v-4q61 -14 119.5 -80t58.5 -164q0 -143 -100.5 -224t-247.5 -81h-520zM354 143h277q86 0 139 40t53 118q0 160 -205 160h-264v-318zM354 596h238q90 0 137 31.5t47 113.5q0 143 -172 144h-250v-289 z" />
<glyph unicode="&#x433;" horiz-adv-x="919" d="M184 0v1028h660v-143h-465v-885h-195z" />
<glyph unicode="&#x434;" horiz-adv-x="1251" d="M55 143h105q33 41 59.5 92.5t43 93.5t28.5 112.5t18 107.5t9.5 124t3.5 113.5v126v115.5h757v-885h131v-473h-194v330h-766v-330h-195v473zM379 143h506v742h-369q0 -287 -38 -480.5t-99 -261.5z" />
<glyph unicode="&#x435;" d="M104 506q0 242 122 398.5t356 154.5q223 -2 337.5 -133t114.5 -353v-96h-725q-12 -150 53.5 -258t204.5 -108q115 0 174.5 49t75.5 159h205q-23 -170 -144.5 -260t-312.5 -90q-236 0 -348.5 146.5t-112.5 390.5zM309 612h520q4 137 -61.5 221.5t-200.5 84.5 q-119 0 -188.5 -87.5t-69.5 -218.5z" />
<glyph unicode="&#x436;" horiz-adv-x="1566" d="M20 0l461 543l-434 485h252l385 -469v469h195v-469l385 469h252l-435 -485l461 -543h-252l-407 506h-4v-506h-195v506h-4l-408 -506h-252z" />
<glyph unicode="&#x437;" horiz-adv-x="1024" d="M86 276h205q27 -164 207 -163q86 0 149.5 51t63.5 121q0 92 -66.5 133t-163.5 41h-75v151h65q94 0 158.5 38t64.5 126q0 141 -172 141q-100 0 -150 -36.5t-63 -122.5h-203q0 168 156 250q104 53 250 53q174 0 280.5 -68.5t106.5 -218.5q0 -86 -57.5 -144.5t-147.5 -74.5 v-4q104 -8 162.5 -81t58.5 -163q0 -152 -110.5 -244t-290.5 -92q-410 0 -428 307z" />
<glyph unicode="&#x438;" horiz-adv-x="1251" d="M184 0v1028h195v-764h4l481 764h215v-1028h-194v766h-4l-482 -766h-215z" />
<glyph unicode="&#x439;" horiz-adv-x="1251" d="M184 0v1028h195v-764h4l481 764h215v-1028h-194v766h-4l-482 -766h-215zM346 1479h98q10 -66 61.5 -106t123.5 -40q76 0 128 39t66 107h101q0 -123 -81 -203t-216 -80q-131 0 -206 81t-75 202z" />
<glyph unicode="&#x43a;" horiz-adv-x="1024" d="M162 0v1028h194v-469l385 469h252l-434 -485l461 -543h-252l-408 506h-4v-506h-194z" />
<glyph unicode="&#x43b;" horiz-adv-x="1228" d="M59 0v152q16 -6 35 -7q76 0 109 56q72 121 71 565v262h785v-1028h-195v885h-395v-215q0 -233 -35 -396t-88 -215q-37 -35 -92 -54t-96 -19z" />
<glyph unicode="&#x43c;" horiz-adv-x="1499" d="M184 0v1028h281l289 -790h2l288 790h281v-1028h-195v782h-4l-299 -782h-145l-299 782h-4v-782h-195z" />
<glyph unicode="&#x43d;" horiz-adv-x="1251" d="M184 0v1028h195v-424h506v424h194v-1028h-194v461h-506v-461h-195z" />
<glyph unicode="&#x43e;" horiz-adv-x="1251" d="M115 514q0 248 133 396.5t378.5 148.5t379 -148.5t133.5 -396.5t-133.5 -396.5t-379 -148.5t-378.5 148.5t-133 396.5zM319 514q0 -182 73 -292.5t234.5 -110.5t234.5 110.5t73 292.5t-73 293t-234.5 111t-234.5 -111t-73 -293z" />
<glyph unicode="&#x43f;" horiz-adv-x="1251" d="M184 0v1028h895v-1028h-194v885h-506v-885h-195z" />
<glyph unicode="&#x440;" horiz-adv-x="1251" d="M166 1028h199l6 -164h4q78 195 350 195q205 0 318.5 -160t113.5 -385q0 -104 -25.5 -197.5t-81 -173.5t-154.5 -127t-232 -47q-74 0 -157 37t-130 111h-6v-510h-195v1237q0 31 -10 184zM371 514q0 -109 21.5 -192.5t85 -147t165.5 -63.5q86 0 148.5 34.5t96.5 95t49 128 t15 145.5q0 109 -22.5 193t-90 147.5t-177.5 63.5q-152 0 -221.5 -120t-69.5 -284z" />
<glyph unicode="&#x441;" horiz-adv-x="1024" d="M80 506q0 240 122 396.5t355 156.5q166 0 274.5 -97.5t116.5 -263.5h-194q-16 219 -211 220q-258 0 -258 -403.5t258 -403.5q96 0 153.5 60t65.5 171h194q-12 -172 -126.5 -272.5t-288.5 -100.5q-236 0 -348.5 146.5t-112.5 390.5z" />
<glyph unicode="&#x442;" horiz-adv-x="1024" d="M45 885v143h940v-143h-373v-885h-194v885h-373z" />
<glyph unicode="&#x443;" d="M33 1028h217l321 -811l328 811h209l-604 -1421h-199l156 397z" />
<glyph unicode="&#x444;" horiz-adv-x="1646" d="M115 506q0 236 117.5 394.5t318.5 158.5q57 0 108.5 -23.5t71.5 -54.5v498h195v-498q20 31 71.5 54.5t108.5 23.5q201 0 318.5 -158.5t117.5 -394.5q0 -240 -110.5 -388.5t-329.5 -148.5q-49 0 -102.5 24.5t-73.5 47.5v-434h-195v434q-20 -23 -73.5 -47.5t-102.5 -24.5 q-219 0 -329.5 148.5t-110.5 388.5zM319 514q0 -410 259 -410q98 1 153 60v692q-53 61 -153 62q-258 0 -259 -404zM926 164q55 -59 153 -60q258 0 258 410q0 403 -258 404q-100 0 -153 -62v-692z" />
<glyph unicode="&#x445;" d="M39 0l407 539l-385 489h252l275 -387l286 387h228l-404 -502l404 -526h-254l-293 412l-291 -412h-225z" />
<glyph unicode="&#x446;" horiz-adv-x="1251" d="M184 0v1028h195v-885h506v885h194v-885h131v-473h-194v330h-832z" />
<glyph unicode="&#x447;" d="M127 733v295h195v-248q0 -125 59 -195.5t176 -70.5q63 0 132.5 11.5t92.5 25.5v477h195v-1028h-195v440q-35 -25 -127 -51.5t-168 -26.5q-166 0 -263 102.5t-97 268.5z" />
<glyph unicode="&#x448;" horiz-adv-x="1751" d="M184 0v1028h195v-885h407v885h195v-885h408v885h194v-1028h-1399z" />
<glyph unicode="&#x449;" horiz-adv-x="1751" d="M184 0v1028h195v-885h407v885h195v-885h408v885h194v-885h131v-473h-194v330h-1336z" />
<glyph unicode="&#x44a;" horiz-adv-x="1343" d="M39 885v143h545v-362h286q160 0 268.5 -88t108.5 -252q0 -168 -101.5 -247t-256.5 -79h-500v885h-350zM584 143h256q86 0 144 49.5t58 139.5q0 190 -215 190h-243v-379z" />
<glyph unicode="&#x44b;" horiz-adv-x="1552" d="M176 0v1028h195v-362h286q160 0 268.5 -88.5t108.5 -251.5q0 -168 -101.5 -247t-256.5 -79h-500zM371 143h256q86 0 144 49.5t58 139.5q0 190 -215 190h-243v-379zM1200 0v1028h195v-1028h-195z" />
<glyph unicode="&#x44c;" d="M184 0v1028h195v-362h287q160 0 268 -88.5t108 -251.5q0 -168 -101 -247t-257 -79h-500zM379 143h256q86 0 144.5 49.5t58.5 139.5q0 190 -215 190h-244v-379z" />
<glyph unicode="&#x44d;" horiz-adv-x="1024" d="M68 342h194q8 -111 65.5 -171t153.5 -60q240 0 256 344h-370v135h370q-25 328 -256 328q-195 0 -211 -220h-194q8 166 116.5 263.5t274.5 97.5q233 0 355 -156.5t122 -396.5q0 -244 -112.5 -390.5t-348.5 -146.5q-174 0 -288.5 100.5t-126.5 272.5z" />
<glyph unicode="&#x44e;" horiz-adv-x="1660" d="M184 0v1028h195v-424h149q25 209 155 332t353 123q246 0 379 -148.5t133 -396.5t-133 -396.5t-379 -148.5q-233 0 -364 133.5t-146 358.5h-147v-461h-195zM729 514q0 -182 72.5 -292.5t234.5 -110.5t234.5 110.5t72.5 292.5t-72.5 293t-234.5 111t-234.5 -111t-72.5 -293 z" />
<glyph unicode="&#x44f;" d="M88 0q23 53 59 289q23 160 166 192v2q-92 23 -143 89.5t-51 170.5q0 133 100 209t248 76h504v-1028h-195v430h-268q-100 0 -137 -41q-12 -12 -19.5 -28.5t-12.5 -39t-7 -37t-4 -47t-4 -44.5q-12 -109 -33 -193h-203zM324 727q0 -160 204 -160h248v318h-260 q-86 0 -139 -40t-53 -118z" />
<glyph unicode="&#x451;" d="M104 506q0 242 122 398.5t356 154.5q223 -2 337.5 -133t114.5 -353v-96h-725q-12 -150 53.5 -258t204.5 -108q115 0 174.5 49t75.5 159h205q-23 -170 -144.5 -260t-312.5 -90q-236 0 -348.5 146.5t-112.5 390.5zM281 1270v209h186v-209h-186zM309 612h520 q4 137 -61.5 221.5t-200.5 84.5q-119 0 -188.5 -87.5t-69.5 -218.5zM666 1270v209h186v-209h-186z" />
<glyph unicode="&#x452;" horiz-adv-x="1224" d="M18 1178v135h166v166h195v-166h272v-135h-272v-287h4q109 168 334 168q186 0 269 -102.5t83 -260.5v-460v2q0 -193 -84 -370t-168 -261h-258q131 115 223 294t92 365v342q0 147 -50 223t-179 78q-61 2 -134 -40t-99 -103q-16 -37 -24.5 -77t-9.5 -57.5t0 -59.5t1 -44 v-528h-195v1178h-166z" />
<glyph unicode="&#x453;" horiz-adv-x="919" d="M184 0v1028h660v-143h-465v-885h-195zM451 1184l167 295h213l-247 -295h-133z" />
<glyph unicode="&#x454;" horiz-adv-x="1024" d="M78 506q0 240 122 396.5t355 156.5q166 0 274.5 -97.5t116.5 -263.5h-194q-16 219 -211 220q-231 0 -256 -328h370v-135h-370q16 -344 256 -344q96 0 153.5 60t65.5 171h194q-12 -172 -126.5 -272.5t-288.5 -100.5q-236 0 -348.5 146.5t-112.5 390.5z" />
<glyph unicode="&#x455;" horiz-adv-x="1024" d="M88 305h205q2 -92 59.5 -143t149.5 -51q98 0 164.5 43t66.5 135q0 53 -46 86t-115.5 45t-150.5 33.5t-150.5 47t-115.5 89.5t-46 158q0 150 122.5 230.5t280.5 80.5q106 0 194.5 -29t150 -102.5t54.5 -184.5h-204q6 92 -52.5 133.5t-152.5 41.5q-84 0 -136.5 -41 t-52.5 -123q0 -39 31 -68t64.5 -39t87 -22.5t67.5 -16.5q23 -6 75 -21.5t77.5 -24.5t67.5 -25.5t63.5 -36t46.5 -48t35 -67.5t10 -86q0 -119 -72.5 -196.5t-170 -105.5t-214.5 -28q-174 0 -284.5 84t-108.5 252z" />
<glyph unicode="&#x456;" horiz-adv-x="569" d="M170 1268v211h231v-211h-231zM188 0v1028h195v-1028h-195z" />
<glyph unicode="&#x457;" horiz-adv-x="569" d="M-4 1270v209h186v-209h-186zM188 0v1028h195v-1028h-195zM381 1270v209h186v-209h-186z" />
<glyph unicode="&#x458;" horiz-adv-x="569" d="M12 -252q66 -6 107 3t56 35t18.5 42t3.5 47v10v1143h194v-1091q0 -154 -53 -242t-201 -88q-84 0 -125 6v135zM178 1268v211h232v-211h-232z" />
<glyph unicode="&#x459;" horiz-adv-x="1779" d="M59 0v152q16 -6 35 -7q76 0 109 56q72 121 71 565v262h785v-362h287q160 0 268 -88.5t108 -251.5q0 -168 -101 -247t-257 -79h-500v885h-395v-215q0 -233 -35 -396t-88 -215q-37 -35 -92 -54t-96 -19zM1059 143h256q86 0 144.5 49.5t58.5 139.5q0 190 -215 190h-244v-379 z" />
<glyph unicode="&#x45a;" horiz-adv-x="1802" d="M184 0v1028h195v-424h506v424h194v-362h287q160 0 268.5 -88.5t108.5 -251.5q0 -168 -101.5 -247t-257.5 -79h-499v461h-506v-461h-195zM1079 143h256q86 0 144.5 49.5t58.5 139.5q0 190 -215 190h-244v-379z" />
<glyph unicode="&#x45b;" horiz-adv-x="1251" d="M18 1178v135h166v166h195v-166h272v-135h-272v-287h4q109 168 334 168q186 0 269 -102.5t83 -260.5v-696h-195v608q0 147 -50 223t-179 78q-61 2 -134 -40t-99 -103q-16 -37 -24.5 -77t-9.5 -57.5t0 -59.5t1 -44v-528h-195v1178h-166z" />
<glyph unicode="&#x45c;" horiz-adv-x="1024" d="M162 0v1028h194v-469l385 469h252l-434 -485l461 -543h-252l-408 506h-4v-506h-194zM471 1184l168 295h213l-248 -295h-133z" />
<glyph unicode="&#x45e;" d="M33 1028h217l321 -811l328 811h209l-604 -1421h-199l156 397zM297 1479h98q10 -66 61.5 -106t123.5 -40q76 0 128 39t66 107h100q0 -123 -80.5 -203t-215.5 -80q-131 0 -206 81t-75 202z" />
<glyph unicode="&#x45f;" horiz-adv-x="1251" d="M184 0v1028h195v-885h506v885h194v-1028h-344v-330h-194v330h-357z" />
<glyph unicode="&#x490;" d="M150 506q0 240 121.5 396.5t355.5 156.5q47 0 98 -10l68 241h98l-78 -272q195 -88 205 -320h-195q-6 100 -55 156l-209 -737q25 -6 53 -6q96 0 153.5 60t65.5 171h195q-12 -172 -127 -272.5t-289 -100.5q-55 0 -90 8l-78 -274h-100l84 299q-139 51 -207.5 184t-68.5 320z M354 514q0 -272 117 -356l213 749q-31 10 -72 11q-258 0 -258 -404z" />
<glyph unicode="&#x491;" horiz-adv-x="1251" d="M115 514q0 186 86 309t222 170t310 35q-45 100 -178 197q-137 100 -309 116l96 138q223 -49 367 -146q190 -125 289.5 -294t131.5 -392q47 -301 -99 -489.5t-404 -188.5q-246 0 -379 148.5t-133 396.5zM319 514q0 -182 73 -292.5t234.5 -110.5t235.5 111.5t74 291.5 q0 154 -75 263.5t-234.5 109.5t-233.5 -109.5t-74 -263.5z" />
<glyph unicode="&#x2000;" horiz-adv-x="964" />
<glyph unicode="&#x2001;" horiz-adv-x="1929" />
<glyph unicode="&#x2002;" horiz-adv-x="964" />
<glyph unicode="&#x2003;" horiz-adv-x="1929" />
<glyph unicode="&#x2004;" horiz-adv-x="643" />
<glyph unicode="&#x2005;" horiz-adv-x="482" />
<glyph unicode="&#x2006;" horiz-adv-x="321" />
<glyph unicode="&#x2007;" horiz-adv-x="321" />
<glyph unicode="&#x2008;" horiz-adv-x="241" />
<glyph unicode="&#x2009;" horiz-adv-x="385" />
<glyph unicode="&#x200a;" horiz-adv-x="107" />
<glyph unicode="&#x2010;" horiz-adv-x="681" d="M84 475v143h514v-143h-514z" />
<glyph unicode="&#x2011;" horiz-adv-x="681" d="M84 475v143h514v-143h-514z" />
<glyph unicode="&#x2012;" horiz-adv-x="681" d="M84 475v143h514v-143h-514z" />
<glyph unicode="&#x2013;" horiz-adv-x="1024" d="M0 475v143h1024v-143h-1024z" />
<glyph unicode="&#x2014;" horiz-adv-x="2048" d="M0 475v143h2048v-143h-2048z" />
<glyph unicode="&#x2018;" horiz-adv-x="569" d="M100 977l230 502h139l-131 -502h-238z" />
<glyph unicode="&#x2019;" horiz-adv-x="569" d="M100 977l131 502h238l-229 -502h-140z" />
<glyph unicode="&#x201c;" d="M195 977l229 502h139l-131 -502h-237zM575 977l230 502h139l-131 -502h-238z" />
<glyph unicode="&#x201d;" d="M195 977l131 502h237l-229 -502h-139zM575 977l132 502h237l-229 -502h-140z" />
<glyph unicode="&#x2020;" d="M147 989v135h326v355h195v-355h325v-135h-325v-989h-195v989h-326z" />
<glyph unicode="&#x2022;" horiz-adv-x="716" d="M102 707q0 106 75 181t181.5 75t181 -75t74.5 -181.5t-74.5 -181t-181 -74.5t-180.5 73.5t-76 182.5z" />
<glyph unicode="&#x2026;" horiz-adv-x="2048" d="M221 0v246h238v-246h-238zM905 0v246h238v-246h-238zM1589 0v246h238v-246h-238z" />
<glyph unicode="&#x202f;" horiz-adv-x="385" />
<glyph unicode="&#x205f;" horiz-adv-x="482" />
<glyph unicode="&#x2116;" horiz-adv-x="2375" d="M203 0v1479h280l721 -1223h4v1223h183v-1479h-254l-748 1255h-4v-1255h-182zM1585 532q0 147 87 236.5t247 89.5t246 -89t86 -237q0 -150 -86 -238.5t-246 -88.5t-247 89t-87 238zM1610 0v129h637v-129h-637zM1745 532q0 -213 174 -213q170 0 170 213q0 211 -170 211 q-174 0 -174 -211z" />
<glyph unicode="&#x2122;" horiz-adv-x="2048" d="M129 1356v123h698v-123h-276v-740h-143v740h-279zM981 616v863h219l248 -609l256 609h217v-863h-135v740h-4l-295 -740h-80l-287 740h-4v-740h-135z" />
<glyph unicode="&#x2264;" horiz-adv-x="1196" d="M92 424v151l1002 -411v-164zM92 752v143l1002 424v-164l-809 -332l809 -331v-164z" />
<glyph unicode="&#x2265;" horiz-adv-x="1196" d="M92 0v164l1002 411v-151zM92 328v164l809 331l-809 332v164l1002 -424v-143z" />
<glyph unicode="&#x25ca;" d="M207 -274l131 501h237l-229 -501h-139zM588 -274l131 501h237l-229 -501h-139z" />
<glyph unicode="&#x25fc;" horiz-adv-x="1024" d="M0 0v1024h1024v-1024h-1024z" />
<glyph horiz-adv-x="0" d="M-2 -1954q0 20 22 21q20 0 21 -21q2 -6 -4 -16l-27 -27h33v-8h-45v10q16 12 29 29q4 8 4 14q0 10 -11 10q-12 0 -12 -12h-10zM49 -1954q0 20 23 21q20 0 20 -21q2 -6 -4 -16l-27 -27h33v-8h-45v10q16 12 29 29q4 8 4 14q0 10 -10 10q-12 0 -13 -12h-10zM102 -1976l2 43 h41v-11h-32v-20q6 6 14 6q23 0 23 -22q0 -27 -25 -27q-23 0 -23 18h11q0 -8 12 -8q14 0 14 17q-4 14 -14 14q-10 -4 -12 -12zM152 -1952q4 18 24 19q23 0 23 -19q0 -12 -15 -16q16 -4 17 -19q0 -18 -25 -18q-25 -4 -24 18q0 15 16 19q-16 4 -16 16zM164 -1987 q0 -12 14.5 -12t14.5 17q0 10 -14.5 10t-14.5 -15zM166 -1950q-2 -14 10 -14q14 0 14 12h3q0 12 -15 13q-12 0 -12 -11z" />
</font>
</defs>
</svg>
